<svg data-v-fde0c5aa="" xmlns="http://www.w3.org/2000/svg" viewBox="0 0 300 300" class="iconLeft"><!----><defs data-v-fde0c5aa=""><!----></defs><rect data-v-fde0c5aa="" fill="transparent" x="0" y="0" width="300px" height="300px" class="logo-background-square"></rect><defs data-v-fde0c5aa=""><!----></defs><g data-v-fde0c5aa="" id="829ae9ae-430d-454a-a63f-64500c4c2a1e" fill="#000000" transform="matrix(2.8385327059492105,0,0,2.8385327059492105,98.0333181662118,128.46972931709382)"><path d="M6.27 12.75L4.34 12.75L4.34 5.63L4.34 5.63Q4.34 5.39 4.25 5.23L4.25 5.23L4.25 5.23Q4.16 5.07 3.95 4.86L3.95 4.86L3.95 4.86Q3.74 4.65 3.61 4.65L3.61 4.65L3.61 4.65Q3.33 4.65 2.87 5.21L2.87 5.21L2.87 5.21Q2.91 5.56 2.91 5.95L2.91 5.95L2.91 12.75L0.98 12.75L0.98 6.76L0.98 6.76Q0.98 5.57 0.82 5.10L0.82 5.10L0.82 5.10Q0.66 4.62 0.14 3.96L0.14 3.96L1.82 2.79L1.82 2.79Q2.27 3.11 2.46 3.56L2.46 3.56L2.46 3.56Q3.47 2.79 3.89 2.79L3.89 2.79L3.89 2.79Q4.31 2.79 5.47 3.86L5.47 3.86L5.47 3.86Q6.64 2.79 7.11 2.79L7.11 2.79L7.11 2.79Q7.46 2.79 8.31 3.52L8.31 3.52L8.31 3.52Q9.16 4.26 9.37 4.56L9.37 4.56L9.37 4.56Q9.58 4.86 9.58 5.35L9.58 5.35L9.58 12.75L7.64 12.75L7.64 5.63L7.64 5.63Q7.64 5.36 7.55 5.21L7.55 5.21L7.55 5.21Q7.45 5.07 7.22 4.86L7.22 4.86L7.22 4.86Q6.99 4.65 6.81 4.65L6.81 4.65L6.81 4.65Q6.64 4.65 6.26 5.11L6.26 5.11L6.26 5.11Q6.27 5.18 6.27 5.35L6.27 5.35L6.27 12.75ZM12.97 11.10L12.97 11.10L12.97 11.10Q13.19 11.31 13.31 11.31L13.31 11.31L13.31 11.31Q13.44 11.31 13.66 11.10L13.66 11.10L13.66 11.10Q13.87 10.89 13.97 10.72L13.97 10.72L13.97 10.72Q14.15 10.42 14.15 8.99L14.15 8.99L14.15 8.99Q14.15 7.56 13.97 7.24L13.97 7.24L13.97 7.24Q13.87 7.07 13.66 6.86L13.66 6.86L13.66 6.86Q13.44 6.65 13.31 6.65L13.31 6.65L13.31 6.65Q13.19 6.65 12.97 6.86L12.97 6.86L12.97 6.86Q12.75 7.07 12.66 7.24L12.66 7.24L12.66 7.24Q12.47 7.55 12.47 8.97L12.47 8.97L12.47 8.97Q12.47 10.40 12.66 10.72L12.66 10.72L12.66 10.72Q12.75 10.89 12.97 11.10ZM14.58 12.24L14.58 12.24L14.58 12.24Q13.72 12.92 13.31 12.92L13.31 12.92L13.31 12.92Q12.91 12.92 12.05 12.24L12.05 12.24L12.05 12.24Q11.19 11.55 10.99 11.21L10.99 11.21L10.99 11.21Q10.70 10.70 10.70 8.97L10.70 8.97L10.70 8.97Q10.70 7.25 10.99 6.75L10.99 6.75L10.99 6.75Q11.19 6.41 12.05 5.73L12.05 5.73L12.05 5.73Q12.91 5.04 13.31 5.04L13.31 5.04L13.31 5.04Q13.72 5.04 14.58 5.73L14.58 5.73L14.58 5.73Q15.44 6.41 15.64 6.75L15.64 6.75L15.64 6.75Q15.93 7.25 15.93 8.97L15.93 8.97L15.93 8.97Q15.93 10.70 15.64 11.21L15.64 11.21L15.64 11.21Q15.44 11.55 14.58 12.24ZM18.63 12.75L17.26 12.75L17.26 5.11L17.26 5.11Q17.26 4.40 17.09 4.02L17.09 4.02L17.09 4.02Q16.93 3.64 16.56 3.33L16.56 3.33L18.10 2.25L18.10 2.25Q19.11 3.05 19.11 4.51L19.11 4.51L19.11 5.78L19.11 5.78Q19.95 5.04 20.32 5.04L20.32 5.04L20.32 5.04Q20.69 5.04 21.45 5.79L21.45 5.79L21.45 5.79Q22.22 6.54 22.33 6.89L22.33 6.89L22.33 6.89Q22.48 7.24 22.48 8.98L22.48 8.98L22.48 8.98Q22.48 10.72 22.33 11.07L22.33 11.07L22.33 11.07Q22.22 11.42 21.45 12.17L21.45 12.17L21.45 12.17Q20.69 12.92 20.36 12.92L20.36 12.92L20.36 12.92Q19.87 12.92 18.79 11.90L18.79 11.90L18.63 12.75ZM19.18 10.62L19.18 10.62L19.18 10.62Q19.28 10.79 19.58 10.98L19.58 10.98L19.58 10.98Q19.88 11.17 20.03 11.17L20.03 11.17L20.03 11.17Q20.19 11.17 20.36 10.99L20.36 10.99L20.36 10.99Q20.54 10.81 20.62 10.61L20.62 10.61L20.62 10.61Q20.71 10.42 20.71 8.98L20.71 8.98L20.71 8.98Q20.71 7.55 20.62 7.36L20.62 7.36L20.62 7.36Q20.54 7.17 20.36 6.98L20.36 6.98L20.36 6.98Q20.19 6.79 20.04 6.79L20.04 6.79L20.04 6.79Q19.89 6.79 19.59 6.98L19.59 6.98L19.59 6.98Q19.29 7.17 19.19 7.31L19.19 7.31L19.19 7.31Q19.08 7.55 19.08 8.99L19.08 8.99L19.08 8.99Q19.08 10.44 19.18 10.62ZM23.46 10.65L23.46 5.21L25.31 5.21L25.31 10.05L25.31 10.05Q25.31 10.77 25.48 11.16L25.48 11.16L25.48 11.16Q25.65 11.55 26.01 11.84L26.01 11.84L24.47 12.92L24.47 12.92Q23.46 12.12 23.46 10.65L23.46 10.65ZM24.42 2.28L24.42 2.28L24.42 2.28Q24.57 2.28 25.10 2.74L25.10 2.74L25.10 2.74Q25.63 3.19 25.63 3.35L25.63 3.35L25.63 3.35Q25.63 3.51 25.09 3.98L25.09 3.98L25.09 3.98Q24.56 4.44 24.41 4.44L24.41 4.44L24.41 4.44Q24.26 4.44 23.73 3.98L23.73 3.98L23.73 3.98Q23.20 3.53 23.20 3.37L23.20 3.37L23.20 3.37Q23.20 3.21 23.74 2.74L23.74 2.74L23.74 2.74Q24.28 2.28 24.42 2.28ZM26.50 10.65L26.50 2.25L28.35 2.25L28.35 10.05L28.35 10.05Q28.35 10.77 28.52 11.16L28.52 11.16L28.52 11.16Q28.69 11.55 29.05 11.84L29.05 11.84L27.51 12.92L27.51 12.92Q26.50 12.12 26.50 10.65L26.50 10.65ZM34.92 8.96L34.92 8.96L34.92 9.46L31.53 9.46L31.53 9.46Q31.53 10.30 31.74 10.79L31.74 10.79L31.74 10.79Q31.81 10.96 31.99 11.14L31.99 11.14L31.99 11.14Q32.17 11.31 32.37 11.31L32.37 11.31L32.37 11.31Q32.56 11.31 32.86 10.98L32.86 10.98L32.86 10.98Q33.15 10.64 33.32 10.16L33.32 10.16L34.76 11.19L34.76 11.19Q34.38 11.89 33.61 12.40L33.61 12.40L33.61 12.40Q32.83 12.92 32.35 12.92L32.35 12.92L32.35 12.92Q31.88 12.92 30.98 12.18L30.98 12.18L30.98 12.18Q30.07 11.44 29.88 11.02L29.88 11.02L29.88 11.02Q29.68 10.61 29.68 8.98L29.68 8.98L29.68 8.98Q29.68 7.35 29.88 6.94L29.88 6.94L29.88 6.94Q30.07 6.52 30.98 5.78L30.98 5.78L30.98 5.78Q31.88 5.04 32.30 5.04L32.30 5.04L32.30 5.04Q32.72 5.04 33.62 5.78L33.62 5.78L33.62 5.78Q34.52 6.52 34.72 6.94L34.72 6.94L34.72 6.94Q34.92 7.35 34.92 8.96ZM32.98 7.20L32.98 7.20L32.98 7.20Q32.87 7.01 32.66 6.83L32.66 6.83L32.66 6.83Q32.44 6.65 32.25 6.65L32.25 6.65L32.25 6.65Q32.06 6.65 31.82 7.02L31.82 7.02L31.82 7.02Q31.58 7.39 31.53 8.13L31.53 8.13L33.12 8.13L33.12 8.13Q33.08 7.39 32.98 7.20ZM41.73 7.38L41.73 12.75L39.89 12.75L39.89 5.11L39.89 5.11Q39.89 4.40 39.72 4.02L39.72 4.02L39.72 4.02Q39.55 3.64 39.19 3.33L39.19 3.33L40.73 2.25L40.73 2.25Q41.73 3.05 41.73 4.51L41.73 4.51L41.73 5.81L41.73 5.81Q42.60 5.04 42.99 5.04L42.99 5.04L42.99 5.04Q43.39 5.04 44.25 5.82L44.25 5.82L44.25 5.82Q45.11 6.59 45.11 7.35L45.11 7.35L45.11 10.05L45.11 10.05Q45.11 10.77 45.28 11.16L45.28 11.16L45.28 11.16Q45.44 11.55 45.81 11.84L45.81 11.84L44.27 12.92L44.27 12.92Q43.26 12.12 43.26 10.65L43.26 10.65L43.26 7.55L43.26 7.55Q43.26 7.31 43.01 7.05L43.01 7.05L43.01 7.05Q42.76 6.79 42.54 6.79L42.54 6.79L42.54 6.79Q42.32 6.79 41.73 7.38L41.73 7.38ZM50.39 5.21L51.76 5.21L51.76 10.95L51.76 10.95Q51.84 11.44 52.42 11.82L52.42 11.82L51.16 12.89L51.16 12.89Q50.97 12.77 50.71 12.45L50.71 12.45L50.71 12.45Q50.44 12.12 50.26 11.79L50.26 11.79L50.26 11.79Q49.10 12.92 48.64 12.92L48.64 12.92L48.64 12.92Q48.30 12.92 47.55 12.18L47.55 12.18L47.55 12.18Q46.80 11.44 46.62 10.98L46.62 10.98L46.62 10.98Q46.44 10.51 46.44 8.98L46.44 8.98L46.44 8.98Q46.44 7.45 46.62 6.99L46.62 6.99L46.62 6.99Q46.80 6.52 47.55 5.78L47.55 5.78L47.55 5.78Q48.30 5.04 48.64 5.04L48.64 5.04L48.64 5.04Q49.13 5.04 50.22 6.05L50.22 6.05L50.39 5.21ZM49.81 7.34L49.81 7.34L49.81 7.34Q49.71 7.17 49.41 6.98L49.41 6.98L49.41 6.98Q49.11 6.79 48.96 6.79L48.96 6.79L48.96 6.79Q48.80 6.79 48.63 6.97L48.63 6.97L48.63 6.97Q48.45 7.15 48.40 7.31L48.40 7.31L48.40 7.31Q48.22 7.56 48.22 8.98L48.22 8.98L48.22 8.98Q48.22 10.40 48.40 10.65L48.40 10.65L48.40 10.65Q48.45 10.79 48.63 10.98L48.63 10.98L48.63 10.98Q48.80 11.17 48.96 11.17L48.96 11.17L48.96 11.17Q49.11 11.17 49.41 10.98L49.41 10.98L49.41 10.98Q49.71 10.79 49.80 10.64L49.80 10.64L49.80 10.64Q49.90 10.49 49.91 9.00L49.91 9.00L49.91 9.00Q49.91 7.52 49.81 7.34ZM56.95 6.68L55.38 6.68L55.38 9.77L55.38 9.77Q55.38 10.43 55.83 10.98L55.83 10.98L55.83 10.98Q56.28 11.52 57.06 11.84L57.06 11.84L55.52 12.92L55.52 12.92Q54.68 12.53 54.11 11.84L54.11 11.84L54.11 11.84Q53.54 11.14 53.54 10.37L53.54 10.37L53.54 6.68L52.84 6.68L52.84 5.63L53.54 5.46L53.54 5.46Q53.51 4.77 53.37 4.38L53.37 4.38L53.37 4.38Q53.23 3.98 52.84 3.60L52.84 3.60L54.38 2.52L54.38 2.52Q55.38 3.32 55.38 4.79L55.38 4.79L55.38 5.21L56.95 5.21L56.95 6.68Z"></path></g><defs data-v-fde0c5aa=""><linearGradient data-v-fde0c5aa="" gradientTransform="rotate(25)" id="d376671c-a484-4b40-8a63-63e911dd024e" x1="0%" y1="0%" x2="100%" y2="0%"><stop data-v-fde0c5aa="" offset="0%" stop-color="#920DE9" stop-opacity="1"></stop><stop data-v-fde0c5aa="" offset="100%" stop-color="#1536F1" stop-opacity="1"></stop></linearGradient></defs><g data-v-fde0c5aa="" id="88765d57-b193-4ab2-9e93-e1d66e1ab33d" stroke="none" fill="url(#d376671c-a484-4b40-8a63-63e911dd024e)" transform="matrix(0.4635787014973122,0,0,0.4635787014973122,39.53642129850269,126.82106315672199)"><path d="M95.1 45.2c-1.6 0-3 1-3.6 2.4H58.2v-3.8H69l9-9c.5.2 1 .3 1.5.3 2.1 0 3.8-1.7 3.8-3.8s-1.7-3.8-3.8-3.8c-2.1 0-3.8 1.7-3.8 3.8 0 .5.1 1 .3 1.5L67.8 41h-9.7v-5l8.2-8.2c.5.2 1 .3 1.5.3 2.1 0 3.8-1.7 3.8-3.8s-1.7-3.8-3.8-3.8c-2.1 0-3.8 1.7-3.8 3.8 0 .5.1 1 .3 1.5l-9 9v6.1h-3.8V8.4c1.4-.6 2.4-1.9 2.4-3.6C53.8 2.7 52.1 1 50 1c-2.1 0-3.8 1.7-3.8 3.8 0 1.6 1 3 2.4 3.6v32.5h-3.8V31l-9-9c.2-.5.3-1 .3-1.5 0-2.1-1.7-3.8-3.8-3.8-2.1 0-3.8 1.7-3.8 3.8s1.7 3.8 3.8 3.8c.5 0 1-.1 1.5-.3l8.2 8.2v8.7h-9.7l-8.2-8.2c.2-.5.3-1 .3-1.5 0-2.1-1.7-3.8-3.8-3.8s-3.8 1.7-3.8 3.8 1.7 3.8 3.8 3.8c.5 0 1-.1 1.5-.3l9 9H42v3.8H8.4c-.6-1.4-1.9-2.4-3.6-2.4C2.7 45.2 1 46.9 1 49c0 2.1 1.7 3.8 3.8 3.8 1.6 0 3-1 3.6-2.4h33.4v3.8h-7l-9 9c-.5-.2-1-.3-1.5-.3-2.1 0-3.8 1.7-3.8 3.8 0 2.1 1.7 3.8 3.8 3.8s3.8-1.7 3.8-3.8c0-.5-.1-1-.3-1.5L36 57h5.8v10.6l-8.2 8.2c-.5-.2-1-.3-1.5-.3-2.1 0-3.8 1.7-3.8 3.8 0 2.1 1.7 3.8 3.8 3.8 2.1 0 3.8-1.7 3.8-3.8 0-.5-.1-1-.3-1.5l9-9V57.2h3.8v34.4c-1.4.6-2.4 1.9-2.4 3.6 0 2.1 1.7 3.8 3.8 3.8 2.1 0 3.8-1.7 3.8-3.8 0-1.6-1-3-2.4-3.6V57.2H55v8l9 9c-.2.5-.3 1-.3 1.5 0 2.1 1.7 3.8 3.8 3.8 2.1 0 3.8-1.7 3.8-3.8s-1.7-3.8-3.8-3.8c-.5 0-1 .1-1.5.3L58.2 64v-6.8H64l8.2 8.2c-.2.5-.3 1-.3 1.5 0 2.1 1.7 3.8 3.8 3.8s3.8-1.7 3.8-3.8c0-2.1-1.7-3.8-3.8-3.8-.5 0-1 .1-1.5.3l-9-9h-7v-3.8h33.4c.6 1.4 1.9 2.4 3.6 2.4 2.1 0 3.8-1.7 3.8-3.8 0-2.3-1.7-4-3.9-4zm-15.5-15c.5 0 1 .4 1 1 0 .5-.4 1-1 1s-1-.4-1-1 .5-1 1-1zm-11.7-6.9c.5 0 1 .4 1 1 0 .5-.4 1-1 1s-1-.4-1-1 .4-1 1-1zm-36.7-2.9c0-.5.4-1 1-1 .5 0 1 .4 1 1 0 .5-.4 1-1 1s-1-.5-1-1zM19.4 31.2c0-.5.4-1 1-1 .5 0 1 .4 1 1 0 .5-.4 1-1 1-.5-.1-1-.5-1-1zm4.8 36.7c-.5 0-1-.4-1-1s.4-1 1-1c.5 0 1 .4 1 1s-.4 1-1 1zm7.9 12.7c-.5 0-1-.4-1-1s.4-1 1-1c.5 0 1 .4 1 1s-.4 1-1 1zm36.7-4.8c0 .5-.4 1-1 1s-1-.4-1-1 .4-1 1-1 1 .4 1 1zm7.9-8.9c0 .5-.4 1-1 1s-1-.4-1-1 .4-1 1-1 1 .5 1 1zM55.3 43.8v3.8h-3.8v-3.8h3.8zM50 3.9c.5 0 1 .4 1 1s-.4 1-1 1c-.5 0-1-.4-1-1s.5-1 1-1zm-5.3 39.9h3.8v3.8h-3.8v-3.8zM4.9 50c-.5 0-1-.4-1-1s.4-1 1-1 1 .4 1 1-.5 1-1 1zm39.8 4.3v-3.8h3.8v3.8h-3.8zM50 96.1c-.5 0-1-.4-1-1s.4-1 1-1c.5 0 1 .4 1 1s-.5 1-1 1zm5.3-41.8h-3.8v-3.8h3.8v3.8zM95.1 50c-.5 0-1-.4-1-1s.4-1 1-1 1 .4 1 1-.4 1-1 1z"></path></g><!----></svg>